# xmcd
#
# Track frame offsets: 
#        225
#        20627
#        39830
#        57361
#        75127
#        94581
#        116742
#        136397
#        153006
#        176884
#        193723
#        201801
#        220300
#
# Disc length: 3413 seconds
#
# Revision: 2
# Processed by: cddbd v1.4PL0 Copyright (c) Steve Scherf et al.
# Submitted via: ExactAudioCopy v0.90b4
#
DISCID=a90d520d
DTITLE=Janis Joplin - Birdland
DYEAR=1997
DGENRE=Rock
TTITLE0=Me And Bobby McGee
TTITLE1=Piece Of My Heart
TTITLE2=Try (Just A Little Bit Harder)
TTITLE3=Cry Baby
TTITLE4=Turtle Blues
TTITLE5=I Need A Man
TTITLE6=Kozmic Blues
TTITLE7=Move Over
TTITLE8=To Love Somebody
TTITLE9=Maybe
TTITLE10=Mercedes Benz
TTITLE11=One Good Man
TTITLE12=Ball And Chain
EXTD=Sampler
EXTT0=
EXTT1=
EXTT2=
EXTT3=
EXTT4=
EXTT5=
EXTT6=
EXTT7=
EXTT8=
EXTT9=
EXTT10=
EXTT11=
EXTT12=
PLAYORDER=
